<?xml version="1.0" encoding="utf-8"?>
<!-- Generator: Adobe Illustrator 24.3.0, SVG Export Plug-In . SVG Version: 6.00 Build 0)  -->
<svg version="1.1" id="レイヤー_1" xmlns="http://www.w3.org/2000/svg" xmlns:xlink="http://www.w3.org/1999/xlink" x="0px"
	 y="0px" viewBox="0 0 302 82" style="enable-background:new 0 0 302 82;" xml:space="preserve">
<style type="text/css">
	.st0{stroke:#000000;stroke-miterlimit:10;}
	.st1{fill:#FFFFFF;stroke:#FFFFFF;stroke-miterlimit:10;}
</style>
<circle class="st0" cx="46.9" cy="41" r="32.27"/>
<polygon class="st1" points="44.03,43.77 31.34,51.12 18.65,43.77 31.34,36.42 "/>
<polygon class="st1" points="75.17,43.77 62.48,51.12 49.79,43.77 62.48,36.42 "/>
<polygon class="st1" points="59.59,33.65 46.9,41 34.21,33.65 46.9,26.3 "/>
<g>
	<path d="M90.56,17.75h1.37v23.9h12.63v1.3h-14V17.75z"/>
	<path d="M129.58,36.11c-1.66,4.64-5.4,7.23-10.22,7.23c-6.59,0-11.23-4.9-11.23-13.07c0-8.35,4.64-12.99,11.23-12.99
		c5.44,0,8.71,3.17,9.93,6.62l-1.3,0.4c-0.61-2.12-3.02-5.69-8.6-5.69c-5.94,0-9.86,4.21-9.86,11.66c0,7.63,4.14,11.77,9.79,11.77
		c4.07,0,7.42-2.2,8.96-6.26L129.58,36.11z"/>
	<path d="M155.07,36.11c-1.66,4.64-5.4,7.23-10.22,7.23c-6.59,0-11.23-4.9-11.23-13.07c0-8.35,4.64-12.99,11.23-12.99
		c5.44,0,8.71,3.17,9.94,6.62l-1.3,0.4c-0.61-2.12-3.02-5.69-8.6-5.69c-5.94,0-9.86,4.21-9.86,11.66c0,7.63,4.14,11.77,9.79,11.77
		c4.07,0,7.42-2.2,8.96-6.26L155.07,36.11z"/>
	<path d="M166.55,34.13c-0.9,0.04-1.69,0.04-2.12,0.04h-2.56v8.78h-1.33V22.79h5.04c4.43,0,6.98,1.98,6.98,5.65
		c0,3.17-1.91,4.97-4.68,5.47l4.97,9.03h-1.48L166.55,34.13z M165.62,32.98c3.56,0,5.62-1.37,5.62-4.46c0-3.2-2.2-4.46-5.69-4.46
		h-3.67v8.93H165.62z"/>
	<path d="M178.25,22.79h11.95v1.26h-10.62v7.74h8.42v1.26h-8.42v8.64h10.76v1.26h-12.09V22.79z"/>
	<path d="M197.59,36.79l-2.3,6.16h-1.4l7.67-20.16h1.51l7.67,20.16h-1.4l-2.34-6.16H197.59z M204.5,30.17
		c-1.44-3.71-2.16-6.05-2.16-6.08h-0.07c0,0.04-0.83,2.48-2.27,6.3l-1.94,5.18h8.46L204.5,30.17z"/>
	<path d="M221.74,24.05v18.9h-1.33v-18.9h-6.66v-1.26h14.61v1.26H221.74z"/>
	<path d="M241.07,22.43c5.25,0,9.14,3.92,9.14,10.44s-3.89,10.47-9.14,10.47c-5.29,0-9.14-3.96-9.14-10.47
		S235.78,22.43,241.07,22.43z M241.07,42.08c4.5,0,7.77-3.38,7.77-9.21c0-5.83-3.28-9.18-7.77-9.18c-4.54,0-7.78,3.35-7.78,9.18
		C233.3,38.7,236.54,42.08,241.07,42.08z"/>
	<path d="M261.45,34.13c-0.9,0.04-1.69,0.04-2.12,0.04h-2.56v8.78h-1.33V22.79h5.04c4.43,0,6.98,1.98,6.98,5.65
		c0,3.17-1.91,4.97-4.68,5.47l4.97,9.03h-1.48L261.45,34.13z M260.51,32.98c3.56,0,5.62-1.37,5.62-4.46c0-3.2-2.2-4.46-5.69-4.46
		h-3.67v8.93H260.51z"/>
	<path d="M272.75,37.8c0.29,2.81,2.45,4.32,5.62,4.32c3.06,0,4.97-1.37,4.97-4.14c0-3.53-3.1-4.14-6.01-5
		c-2.27-0.72-5.33-1.66-5.33-5.47c0-3.28,2.3-5.08,6.08-5.08c3.46,0,5.87,1.48,6.48,4.79l-1.26,0.36c-0.47-2.48-1.91-3.96-5.11-3.96
		c-3.06,0-4.86,1.33-4.86,3.85c0,2.92,2.41,3.71,5.18,4.5c2.48,0.76,6.19,1.73,6.19,6.01c0,3.53-2.45,5.36-6.34,5.36
		c-2.77,0-6.26-0.94-6.84-5.18L272.75,37.8z"/>
</g>
<g>
	<path d="M98.87,61.2h-6.08l-1.6,4.28h-0.56l4.84-12.89h0.72l4.88,12.89h-0.58L98.87,61.2z M95.81,53.14l-2.83,7.54h5.69
		L95.81,53.14z"/>
	<path d="M107.26,56.15h0.58l2.32,8.86l2.52-8.86h0.72l2.52,8.91l2.32-8.91h0.56l-2.47,9.34h-0.83l-2.48-8.62l-2.48,8.62h-0.81
		L107.26,56.15z"/>
	<path d="M127.69,65.49c-0.08-0.37-0.13-0.98-0.13-1.82c-0.12,0.23-0.28,0.46-0.47,0.69s-0.43,0.45-0.71,0.64
		c-0.28,0.19-0.61,0.35-0.97,0.48s-0.79,0.19-1.27,0.19c-0.97,0-1.74-0.25-2.29-0.76s-0.84-1.2-0.84-2.06
		c0-0.94,0.36-1.64,1.09-2.12c0.73-0.48,1.76-0.72,3.1-0.72h2.36v-0.94c0-0.51-0.07-0.93-0.22-1.27c-0.15-0.34-0.35-0.61-0.6-0.8
		s-0.55-0.34-0.88-0.42c-0.34-0.08-0.7-0.13-1.08-0.13c-0.34,0-0.66,0.02-0.96,0.07c-0.31,0.05-0.59,0.11-0.85,0.2
		c-0.26,0.08-0.49,0.17-0.7,0.27c-0.21,0.1-0.39,0.2-0.53,0.31l-0.18-0.46c0.31-0.21,0.74-0.41,1.28-0.59
		c0.54-0.18,1.19-0.27,1.94-0.27c0.46,0,0.89,0.05,1.29,0.16c0.4,0.11,0.76,0.29,1.06,0.53c0.31,0.25,0.55,0.56,0.72,0.95
		c0.17,0.39,0.26,0.86,0.26,1.41v4.61c0,0.4,0.01,0.75,0.02,1.07c0.01,0.32,0.04,0.58,0.09,0.78H127.69z M124.18,65.2
		c0.5,0,0.95-0.08,1.33-0.25c0.38-0.17,0.71-0.38,0.99-0.63s0.5-0.52,0.68-0.79c0.17-0.28,0.3-0.52,0.39-0.74V60.5h-2.34
		c-1.27,0-2.2,0.2-2.79,0.61s-0.88,0.99-0.88,1.75c0,0.78,0.25,1.37,0.75,1.75C122.8,65.01,123.43,65.2,124.18,65.2z"/>
	<path d="M132.12,68.85c-0.17,0-0.3-0.01-0.4-0.04s-0.18-0.05-0.24-0.09l0.05-0.44c0.08,0.02,0.17,0.04,0.26,0.06
		c0.09,0.02,0.2,0.03,0.33,0.03c0.53,0,0.97-0.24,1.31-0.72c0.35-0.48,0.7-1.21,1.06-2.19l-3.62-9.32h0.59l3.31,8.64l3.46-8.64h0.56
		l-3.67,9.22c-0.23,0.56-0.44,1.06-0.64,1.49c-0.2,0.43-0.41,0.8-0.64,1.1s-0.48,0.53-0.76,0.67
		C132.82,68.78,132.49,68.85,132.12,68.85z"/>
	<path d="M149.33,65.6c-0.2,0.04-0.43,0.06-0.67,0.06c-0.78,0-1.34-0.19-1.68-0.58s-0.51-0.89-0.51-1.51v-6.96h-1.33v-0.47h1.33
		v-1.96H147v1.96h2.72v0.47H147v6.89c0,0.24,0.03,0.46,0.08,0.67c0.05,0.21,0.14,0.38,0.27,0.54c0.13,0.16,0.3,0.28,0.51,0.36
		c0.22,0.08,0.48,0.13,0.79,0.13c0.22,0,0.42-0.02,0.6-0.06c0.19-0.04,0.34-0.09,0.46-0.14l0.13,0.45
		C149.71,65.51,149.53,65.56,149.33,65.6z"/>
	<path d="M156.6,65.67c-0.62,0-1.2-0.11-1.73-0.33c-0.53-0.22-0.99-0.54-1.38-0.95c-0.39-0.41-0.7-0.92-0.92-1.52
		c-0.22-0.6-0.33-1.28-0.33-2.05c0-0.77,0.11-1.45,0.33-2.05c0.22-0.6,0.53-1.11,0.92-1.52c0.39-0.41,0.85-0.73,1.38-0.95
		c0.53-0.22,1.1-0.32,1.73-0.32s1.2,0.11,1.74,0.32c0.53,0.22,1,0.53,1.39,0.95c0.4,0.41,0.71,0.92,0.93,1.52
		c0.22,0.6,0.33,1.28,0.33,2.05c0,0.77-0.11,1.45-0.33,2.05c-0.22,0.6-0.53,1.11-0.93,1.52c-0.4,0.41-0.86,0.73-1.39,0.95
		C157.8,65.56,157.22,65.67,156.6,65.67z M156.6,65.2c0.55,0,1.06-0.1,1.53-0.29c0.47-0.19,0.87-0.48,1.21-0.86s0.61-0.84,0.81-1.38
		c0.2-0.54,0.3-1.17,0.3-1.88c0-0.7-0.1-1.32-0.3-1.87c-0.2-0.55-0.47-1-0.81-1.37s-0.75-0.65-1.21-0.84
		c-0.47-0.19-0.98-0.29-1.53-0.29s-1.06,0.1-1.52,0.29s-0.86,0.47-1.21,0.84c-0.34,0.37-0.61,0.82-0.8,1.37
		c-0.19,0.55-0.29,1.17-0.29,1.87c0,0.71,0.1,1.33,0.29,1.88c0.19,0.54,0.46,1,0.8,1.38c0.34,0.38,0.74,0.67,1.21,0.86
		S156.05,65.2,156.6,65.2z"/>
	<path d="M171.16,65.67c-0.46,0-0.86-0.03-1.22-0.1c-0.36-0.07-0.68-0.15-0.95-0.24c-0.28-0.1-0.51-0.2-0.69-0.31
		c-0.19-0.11-0.33-0.2-0.42-0.27l0.13-0.52c0.12,0.1,0.28,0.2,0.47,0.31c0.19,0.11,0.42,0.22,0.69,0.32
		c0.27,0.1,0.57,0.18,0.91,0.24c0.34,0.07,0.7,0.1,1.1,0.1c0.36,0,0.71-0.04,1.04-0.11c0.34-0.07,0.64-0.19,0.91-0.36
		c0.27-0.17,0.49-0.39,0.65-0.66c0.16-0.27,0.24-0.6,0.24-1c0-0.37-0.07-0.68-0.21-0.94s-0.33-0.46-0.58-0.62s-0.56-0.29-0.92-0.4
		c-0.36-0.1-0.76-0.2-1.21-0.3c-0.48-0.1-0.91-0.2-1.3-0.32c-0.38-0.12-0.71-0.27-0.98-0.45c-0.27-0.18-0.48-0.41-0.62-0.68
		c-0.14-0.28-0.22-0.61-0.22-1.01c0-0.42,0.08-0.78,0.25-1.08s0.4-0.55,0.68-0.75s0.63-0.34,1.03-0.43c0.4-0.09,0.82-0.14,1.28-0.14
		c0.76,0,1.35,0.07,1.79,0.21c0.44,0.14,0.78,0.27,1.02,0.4l-0.14,0.5c-0.24-0.13-0.58-0.27-1.02-0.42
		c-0.44-0.14-0.99-0.22-1.65-0.22c-0.37,0-0.72,0.03-1.04,0.09c-0.32,0.06-0.61,0.17-0.86,0.32s-0.44,0.35-0.58,0.6
		c-0.14,0.25-0.22,0.55-0.22,0.91c0,0.33,0.06,0.6,0.18,0.81c0.12,0.22,0.3,0.4,0.53,0.54c0.23,0.14,0.52,0.26,0.86,0.35
		c0.34,0.09,0.72,0.18,1.15,0.26c0.46,0.1,0.89,0.2,1.3,0.32c0.41,0.12,0.76,0.28,1.06,0.48s0.54,0.45,0.71,0.77
		c0.17,0.31,0.26,0.7,0.26,1.17c0,0.46-0.08,0.85-0.25,1.18s-0.4,0.6-0.71,0.81c-0.31,0.21-0.67,0.37-1.08,0.47
		C172.11,65.62,171.65,65.67,171.16,65.67z"/>
	<path d="M181.48,65.67c-0.62,0-1.2-0.11-1.73-0.33c-0.53-0.22-0.99-0.54-1.38-0.95c-0.39-0.41-0.7-0.92-0.92-1.52
		c-0.22-0.6-0.33-1.28-0.33-2.05c0-0.77,0.11-1.45,0.33-2.05c0.22-0.6,0.53-1.11,0.92-1.52c0.39-0.41,0.85-0.73,1.38-0.95
		c0.53-0.22,1.1-0.32,1.73-0.32s1.2,0.11,1.74,0.32c0.53,0.22,1,0.53,1.39,0.95c0.4,0.41,0.71,0.92,0.93,1.52
		c0.22,0.6,0.33,1.28,0.33,2.05c0,0.77-0.11,1.45-0.33,2.05c-0.22,0.6-0.53,1.11-0.93,1.52c-0.4,0.41-0.86,0.73-1.39,0.95
		C182.68,65.56,182.1,65.67,181.48,65.67z M181.48,65.2c0.55,0,1.06-0.1,1.53-0.29c0.47-0.19,0.87-0.48,1.21-0.86
		s0.61-0.84,0.81-1.38c0.2-0.54,0.3-1.17,0.3-1.88c0-0.7-0.1-1.32-0.3-1.87c-0.2-0.55-0.47-1-0.81-1.37s-0.75-0.65-1.21-0.84
		c-0.47-0.19-0.98-0.29-1.53-0.29s-1.06,0.1-1.52,0.29s-0.86,0.47-1.21,0.84c-0.34,0.37-0.61,0.82-0.8,1.37
		c-0.19,0.55-0.29,1.17-0.29,1.87c0,0.71,0.1,1.33,0.29,1.88c0.19,0.54,0.46,1,0.8,1.38c0.34,0.38,0.74,0.67,1.21,0.86
		S180.92,65.2,181.48,65.2z"/>
	<path d="M189.65,52.6v12.89h-0.54V52.6H189.65z"/>
	<path d="M199.68,64.2c-0.2,0.28-0.44,0.53-0.73,0.75s-0.63,0.39-1.02,0.52c-0.39,0.13-0.83,0.2-1.32,0.2
		c-0.98,0-1.75-0.27-2.29-0.81s-0.81-1.33-0.81-2.36v-6.35h0.54v6.35c0,0.96,0.24,1.65,0.72,2.07c0.48,0.42,1.11,0.63,1.89,0.63
		c0.49,0,0.92-0.07,1.3-0.22c0.37-0.14,0.7-0.34,0.98-0.59c0.28-0.25,0.52-0.54,0.71-0.87c0.19-0.33,0.36-0.68,0.5-1.04v-6.34h0.56
		v9.34h-0.52l-0.04-2.18h-0.02C200.03,63.62,199.88,63.92,199.68,64.2z"/>
	<path d="M207.94,65.6c-0.2,0.04-0.43,0.06-0.67,0.06c-0.78,0-1.34-0.19-1.68-0.58c-0.34-0.38-0.51-0.89-0.51-1.51v-6.96h-1.33
		v-0.47h1.33v-1.96h0.54v1.96h2.72v0.47h-2.72v6.89c0,0.24,0.03,0.46,0.08,0.67c0.05,0.21,0.14,0.38,0.27,0.54
		c0.13,0.16,0.3,0.28,0.51,0.36s0.48,0.13,0.79,0.13c0.22,0,0.42-0.02,0.6-0.06c0.19-0.04,0.34-0.09,0.46-0.14l0.13,0.45
		C208.31,65.51,208.14,65.56,207.94,65.6z"/>
	<path d="M211.84,53.91c-0.17,0-0.29-0.05-0.38-0.15c-0.08-0.1-0.13-0.22-0.13-0.35s0.04-0.25,0.13-0.35
		c0.08-0.1,0.21-0.15,0.38-0.15s0.29,0.05,0.38,0.15c0.08,0.1,0.13,0.22,0.13,0.35s-0.04,0.25-0.13,0.35
		C212.13,53.86,212.01,53.91,211.84,53.91z M212.11,56.15v9.34h-0.54v-9.34H212.11z"/>
	<path d="M219.71,65.67c-0.62,0-1.2-0.11-1.73-0.33c-0.53-0.22-0.99-0.54-1.38-0.95c-0.39-0.41-0.7-0.92-0.92-1.52
		c-0.22-0.6-0.33-1.28-0.33-2.05c0-0.77,0.11-1.45,0.33-2.05c0.22-0.6,0.53-1.11,0.92-1.52c0.39-0.41,0.85-0.73,1.38-0.95
		c0.53-0.22,1.1-0.32,1.73-0.32s1.2,0.11,1.74,0.32c0.53,0.22,1,0.53,1.39,0.95c0.4,0.41,0.71,0.92,0.93,1.52
		c0.22,0.6,0.33,1.28,0.33,2.05c0,0.77-0.11,1.45-0.33,2.05c-0.22,0.6-0.53,1.11-0.93,1.52c-0.4,0.41-0.86,0.73-1.39,0.95
		C220.91,65.56,220.33,65.67,219.71,65.67z M219.71,65.2c0.55,0,1.06-0.1,1.53-0.29c0.47-0.19,0.87-0.48,1.21-0.86
		s0.61-0.84,0.81-1.38c0.2-0.54,0.3-1.17,0.3-1.88c0-0.7-0.1-1.32-0.3-1.87c-0.2-0.55-0.47-1-0.81-1.37s-0.75-0.65-1.21-0.84
		c-0.47-0.19-0.98-0.29-1.53-0.29s-1.06,0.1-1.52,0.29s-0.86,0.47-1.21,0.84c-0.34,0.37-0.61,0.82-0.8,1.37
		c-0.19,0.55-0.29,1.17-0.29,1.87c0,0.71,0.1,1.33,0.29,1.88c0.19,0.54,0.46,1,0.8,1.38c0.34,0.38,0.74,0.67,1.21,0.86
		S219.16,65.2,219.71,65.2z"/>
	<path d="M231.59,56.43c-0.54,0-1.01,0.08-1.41,0.24c-0.4,0.16-0.75,0.37-1.04,0.63c-0.29,0.26-0.54,0.56-0.74,0.89
		s-0.37,0.68-0.51,1.03v6.26h-0.54v-9.34h0.5l0.02,2.27h0.04c0.12-0.3,0.28-0.59,0.48-0.88c0.2-0.29,0.45-0.55,0.76-0.78
		c0.31-0.23,0.67-0.42,1.08-0.57c0.41-0.14,0.89-0.22,1.43-0.22c1.01,0,1.79,0.26,2.36,0.77c0.56,0.51,0.85,1.25,0.85,2.22v6.53
		h-0.54v-6.55c0-0.89-0.25-1.53-0.76-1.92S232.39,56.43,231.59,56.43z"/>
	<path d="M239.49,65.56c-0.2,0-0.36-0.06-0.47-0.19s-0.16-0.27-0.16-0.44c0-0.18,0.05-0.33,0.16-0.45s0.26-0.18,0.47-0.18
		s0.36,0.06,0.47,0.18c0.11,0.12,0.16,0.27,0.16,0.45c0,0.17-0.05,0.31-0.16,0.44C239.85,65.5,239.69,65.56,239.49,65.56z"/>
</g>
<g>
</g>
<g>
</g>
<g>
</g>
<g>
</g>
<g>
</g>
<g>
</g>
</svg>
