<?xml version="1.0" standalone="no"?>
<!DOCTYPE svg PUBLIC "-//W3C//DTD SVG 20010904//EN"
 "http://www.w3.org/TR/2001/REC-SVG-20010904/DTD/svg10.dtd">
<svg version="1.0" xmlns="http://www.w3.org/2000/svg"
 width="400.000000pt" height="400.000000pt" viewBox="0 0 400.000000 400.000000"
 preserveAspectRatio="xMidYMid meet">
<metadata>
Created by potrace 1.11, written by Peter Selinger 2001-2013
</metadata>
<g transform="translate(0.000000,400.000000) scale(0.100000,-0.100000)"
fill="#000000" stroke="none">
<path d="M1805 3979 c-195 -24 -368 -66 -526 -129 -997 -395 -1502 -1487
-1158 -2505 65 -190 200 -436 326 -593 322 -400 799 -669 1298 -733 160 -21
409 -18 573 7 311 46 679 210 932 413 373 300 637 746 719 1216 36 207 35 499
-3 699 -162 842 -818 1479 -1661 1612 -116 18 -398 25 -500 13z"/>
</g>
</svg>
